<svg width="1440" height="1003" viewBox="0 0 1440 1003" fill="none" xmlns="http://www.w3.org/2000/svg">
<mask id="mask0" mask-type="alpha" maskUnits="userSpaceOnUse" x="0" y="0" width="1440" height="1003">
<rect width="1440" height="1003" fill="#C4C4C4"/>
</mask>
<g mask="url(#mask0)">
<path d="M1440 -93H0V884H1440V-93Z" fill="url(#paint0_linear)"/>
<path d="M1484.36 471.612C1470.05 457.313 1447.41 452.945 1429.21 461.079C1412.72 468.438 1400.33 484.352 1398.04 502.664C1397.79 504.622 1395.43 505.257 1394.34 503.654C1384.72 489.549 1367.46 481.307 1351 483.588C1335.41 485.75 1321.17 497.661 1314.71 512.8C1313.88 514.736 1311.13 514.338 1310.83 512.24C1307.09 486.041 1296.48 460.649 1278.27 442.433C1253.38 417.546 1215.93 408.594 1182.35 416.352C1148.77 424.109 1119.37 447.393 1100.06 477.229C1082.68 504.085 1075.55 538.483 1072.82 571.331C1072.62 573.634 1069.58 574.043 1068.85 571.858C1064.41 558.506 1058.42 545.595 1047.28 538.16C1036.79 531.145 1023.43 530.424 1011.18 532.705C977.198 539.01 949.271 568.953 941.937 604.126C941.517 606.149 938.871 606.461 938.081 604.567C934.584 596.175 927.333 589.418 918.759 587.47C909.682 585.405 900.523 590.01 894.349 597.423C893.005 599.037 890.503 597.907 890.749 595.787C892.318 582.134 892.021 568.232 888.698 554.977C884.575 538.526 875.457 523.107 861.95 513.682C841.089 499.146 812.208 501.201 790.741 514.736C771.768 526.701 759.317 547.789 751.04 569.674C750.261 571.74 747.368 571.374 747.102 569.168C746.589 564.843 745.861 560.55 744.64 556.397C742.558 549.307 738.876 542.517 733.184 538.106C724.774 531.586 713.01 531.532 703.482 536.223C702.569 524.71 698.026 513.478 690.385 505.128C678.16 491.765 658.571 486.407 641.679 491.808C629.033 495.854 618.674 506.344 612.982 519.019C612.1 520.988 609.28 520.439 609.105 518.276C607.3 495.498 595.536 473.571 577.434 460.724C556.522 445.887 530.113 443.735 507.518 455.097C506.164 455.785 504.595 454.752 504.585 453.171C504.431 425.099 502.667 396.662 493.683 370.258C484.329 342.757 466.155 317.408 440.587 305.895C415.869 294.759 386.506 297.88 362.64 310.909C340.251 323.132 326.303 347.577 314.18 371.098C313.308 372.776 310.939 372.529 310.416 370.689C307.165 359.251 302.806 347.739 293.544 341.143C286.293 335.979 277.042 334.731 268.335 335.688C252.499 337.42 237.484 346.179 227.721 359.37C219.567 370.387 214.706 385.3 214.685 399.535C214.685 401.687 212.059 402.548 210.931 400.751C203.629 389.12 195.188 378.016 183.096 372.798C166.522 365.643 146.482 372.055 133.805 385.354C124.369 395.253 118.472 408.422 115.436 422.227C114.944 424.454 111.918 424.411 111.447 422.173C106.206 397.695 90.596 375.67 69.3863 363.964C44.0639 349.998 11.716 351.268 -12.5398 367.181C-45.9132 389.077 -60.0564 433.298 -61 474.593C-61 474.7 -61 474.819 -60.9795 474.926L-46.826 593.044V804.908H1481.93L1484.53 697.862C1484.82 697.497 1485 697.023 1485 696.507V473.183C1484.99 472.592 1484.76 472.021 1484.36 471.612Z" fill="#1533D2"/>
<path d="M761 795.793C959.889 635.997 1222.35 546.49 1485 548.896V936.086H761.801L761 795.793Z" fill="url(#paint1_linear)"/>
<path d="M1466.13 747.819C1322.96 716.625 1179.8 685.42 1036.63 654.226C663.967 573.015 278.266 491.582 -96.8187 567.25L-19 2201L1466.13 2201L1466.13 747.819Z" fill="url(#paint2_linear)"/>
<path d="M1230.32 267.577H1022.93C1021.56 267.577 1020.42 266.528 1020.2 265.111C1018.19 252.046 1024.46 237.218 1035.63 231.163C1045.96 225.569 1059.33 227.332 1068.35 234.898C1070.01 236.294 1072.45 235.318 1072.81 233.114C1075.5 216.586 1083.46 200.488 1096.03 190.361C1110.02 179.101 1130.09 175.774 1145.83 184.096C1159.49 191.316 1168.46 207.792 1167.02 223.512C1166.81 225.789 1169.08 227.353 1171.04 226.335C1176.23 223.628 1182.62 223.355 1187.8 226.083C1193.26 228.959 1197.02 234.909 1197.83 241.237C1198.1 243.378 1200.39 244.501 1202.1 243.294C1208.61 238.708 1217.34 237.417 1224.02 241.552C1231.74 246.327 1235.12 256.265 1233.02 265.311C1232.71 266.644 1231.61 267.577 1230.32 267.577Z" fill="white"/>
<path d="M198.182 240.675H358.032C358.572 240.675 359.052 240.307 359.222 239.762C361.332 232.825 361.652 225.08 359.032 218.353C356.302 211.333 350.372 205.561 343.282 204.071C336.982 202.738 329.962 205.194 325.952 210.378C325.342 211.175 324.142 210.944 323.822 209.979C320.542 200.02 316.252 190.05 309.252 182.589C301.672 174.519 291.312 168.968 280.512 168.957C271.052 168.947 261.662 173.344 255.342 180.721C249.792 187.196 246.692 195.896 246.692 204.595C246.692 205.697 245.492 206.317 244.672 205.624C241.912 203.263 238.212 202.727 234.612 204.228C230.972 205.739 228.362 209.496 227.792 213.526C227.652 214.544 226.462 214.995 225.742 214.292C222.372 211.039 217.192 210.063 212.802 211.983C208.142 214.019 205.122 219.382 205.332 224.618C205.372 225.5 204.552 226.172 203.752 225.909C202.302 225.437 200.622 225.741 199.292 226.696C197.272 228.155 196.242 230.758 196.032 233.318C195.852 235.532 196.462 237.526 196.962 239.657C197.112 240.265 197.612 240.675 198.182 240.675Z" fill="white"/>
<path d="M1077.43 98.6455C1076.57 98.6455 1075.79 98.0547 1075.55 97.1982C1070.36 78.723 1078.57 56.9397 1094.56 47.355C1109.44 38.4349 1126.1 41.9941 1138.33 53.8679C1139.53 55.0346 1141.53 54.0746 1141.46 52.3762C1140.13 25.4092 1157.41 -1.80881 1182.05 -10.2415C1205.35 -18.2164 1234.47 -8.69087 1249.72 11.4384C1250.9 13.0038 1253.24 11.8371 1252.98 9.87295C1247.8 -26.8559 1263.33 -66.3613 1292.34 -87.923C1323.97 -111.434 1369.54 -112.069 1401.76 -89.4294C1432.25 -68.0005 1448.93 -26.1913 1443.18 11.7781C1442.9 13.6389 1444.93 14.909 1446.25 13.6389C1460.22 0.243991 1480.07 -6.31315 1498.85 -3.38902C1519.62 -0.154753 1538.44 14.5841 1547.26 34.5509C1555.6 53.41 1554.77 76.36 1545.3 94.5989C1544.27 96.5779 1542.22 97.7594 1540.07 97.7594L1077.43 98.6455Z" fill="white"/>
<path d="M154.658 116.906H-206.522C-207.752 116.906 -208.832 116.067 -209.202 114.839C-213.982 99.1708 -214.692 81.6559 -208.772 66.4708C-202.592 50.614 -189.202 37.5696 -173.192 34.201C-158.952 31.1996 -143.092 36.7301 -134.042 48.4522C-132.662 50.2467 -129.942 49.7325 -129.222 47.5602C-121.802 25.0605 -112.112 2.52937 -96.2918 -14.3139C-79.1818 -32.5424 -55.7518 -45.104 -31.3718 -45.125C-9.99181 -45.146 11.2182 -35.2289 25.4982 -18.5326C38.0282 -3.8931 45.0482 15.7521 45.0382 35.4183C45.0382 37.9055 47.7582 39.3117 49.5982 37.7375C55.8282 32.417 64.1882 31.1891 72.3382 34.5683C80.5582 37.9894 86.4682 46.4583 87.7382 55.5882C88.0582 57.8865 90.7382 58.9044 92.3582 57.3303C99.9782 49.9738 111.678 47.791 121.588 52.1042C132.108 56.6901 138.938 68.8215 138.468 80.659C138.388 82.6529 140.218 84.1641 142.038 83.5764C145.308 82.5165 149.108 83.1986 152.108 85.3709C156.658 88.6661 158.998 94.5534 159.468 100.336C159.878 105.341 158.488 109.843 157.368 114.65C157.068 115.972 155.948 116.906 154.658 116.906Z" fill="white"/>
<path d="M196.77 597.899H369.84V458.661L285.47 317.146L214.08 373.899L162.88 443.518L167.93 478.328L196.77 597.899Z" fill="#FFA800"/>
<path d="M196.77 597.899H369.84V458.661L285.47 317.146L214.08 373.899L162.88 443.518L167.93 478.328L196.77 597.899Z" fill="#DB4630"/>
<path d="M196.77 458.661H36.6904V597.899H196.77V458.661Z" fill="#EB3729"/>
<path d="M273.931 309.58H293.401L389.311 458.661H369.841L273.931 309.58Z" fill="#FFA800"/>
<path d="M273.931 309.58H293.401L389.311 458.661H369.841L273.931 309.58Z" fill="#C72802"/>
<path d="M286.301 418.069C254.501 418.069 228.721 445.123 228.721 478.495V597.899H343.871V478.485C343.871 445.113 318.091 418.069 286.301 418.069Z" fill="#CF3704"/>
<path d="M286.3 418.51C254.58 418.51 228.87 445.49 228.87 478.778V597.898H343.74V478.778C343.73 445.49 318.01 418.51 286.3 418.51Z" fill="#989898" style="mix-blend-mode:multiply"/>
<path d="M292.68 309.58H116.73L20.8203 458.661H196.77L292.68 309.58Z" fill="#CF3704"/>
<path d="M379.552 416.852L380.138 417.8C380.56 421.024 382.695 423.928 385.544 425.183C388.393 426.439 391.864 426.032 394.362 424.113L394.772 424.063C394.468 421.135 393.647 418.267 392.275 415.671C390.668 412.656 386.916 411.77 384.172 413.69C382.648 414.76 381.1 415.794 379.552 416.852Z" fill="#EB3729"/>
<path d="M361.118 481.31L360.309 481.913C362.478 486.158 363.85 490.797 363.428 495.547C363.158 498.587 362.091 501.43 360.485 503.903L361.177 504.715C365.175 507.447 370.522 507.816 374.814 505.663C379.106 503.509 382.213 498.919 382.718 493.948C383.316 488.004 380.466 482.344 377.71 477.101L377.394 476.351C372.223 478.762 366.641 480.055 361.118 481.31Z" fill="#EB3729"/>
<path d="M229.105 489.025C239.108 493.381 249.919 495.756 260.625 494.501C271.659 493.197 282.236 487.967 290.222 479.87C295.604 474.394 299.767 467.761 304.563 461.731C307.787 457.67 311.622 453.954 315.949 451.222C319.76 448.822 322.445 444.885 323.453 440.344C325.564 430.942 331.626 422.488 339.846 418.095C348.922 413.259 360.719 413.579 369.772 418.624C372.269 420.015 375.295 419.806 377.628 418.157C378.261 417.714 378.895 417.271 379.539 416.852L380.126 417.8C380.548 421.024 382.682 423.928 385.532 425.183C388.381 426.439 391.852 426.032 394.35 424.113L394.748 424.063C394.76 424.125 394.76 424.199 394.772 424.26C395.241 429.133 394.291 434.179 392.075 438.449C391.266 439.999 390.316 441.39 389.237 442.645C385.578 446.534 380.231 449.204 372.914 450.791C371.835 451.025 371.143 452.145 371.366 453.277C371.566 454.262 372.398 454.951 373.325 454.951C373.465 454.951 373.594 454.938 373.735 454.901C381.439 453.216 387.255 450.385 391.43 446.263C393.552 451.173 393.763 456.993 391.863 462.026C389.565 468.105 384.535 472.695 378.941 475.6C378.425 475.87 377.898 476.129 377.37 476.363V476.375C372.211 478.774 366.629 480.067 361.106 481.322L360.297 481.925C362.466 486.17 363.838 490.809 363.416 495.559C363.146 498.599 362.079 501.441 360.473 503.915C357.26 508.85 351.866 512.357 346.143 513.12C345.534 513.193 344.912 513.243 344.302 513.267C335.015 513.513 326.197 507.151 321.917 498.5C321.835 498.316 321.741 498.131 321.659 497.959L321.425 498.082C321.108 503.25 318.036 508.148 313.615 510.486C310.379 512.197 306.521 512.48 303.062 511.397C301.643 510.954 300.259 512.147 300.435 513.698C301.186 520.515 297.832 527.665 292.661 532.218C286.469 537.657 277.698 539.232 269.783 537.497L269.431 537.485L268.575 565.308L267.344 565.271C253.507 565.136 239.764 559.586 229.422 549.926C229.293 550.086 229.14 550.246 229 550.406V491.954C229 490.945 229.035 489.985 229.105 489.025Z" fill="#FDC300"/>
<path d="M373.337 454.951C372.411 454.951 371.578 454.274 371.379 453.278C371.156 452.145 371.848 451.026 372.927 450.792C380.244 449.192 385.591 446.522 389.25 442.646L389.719 443.101C390.387 444.098 390.962 445.156 391.442 446.263C387.268 450.386 381.452 453.216 373.748 454.902C373.607 454.939 373.466 454.951 373.337 454.951Z" fill="#EB3729"/>
<path d="M350.986 605.289H341.242C337.29 605.289 333.726 602.815 332.189 598.988L316.23 559.278L316.031 558.798C309.605 563.191 301.807 565.677 294.713 565.357L290.222 580.21C289.612 582.228 290.679 584.43 292.626 584.972C300.259 587.125 301.045 596.035 300.799 601.314C300.693 603.541 298.958 605.289 296.835 605.289H276.619C271.542 605.289 267.473 600.883 267.637 595.567L268.575 565.295L269.431 537.472L269.783 537.484C277.686 539.232 286.469 537.657 292.661 532.205C297.832 527.652 301.186 520.503 300.435 513.685C300.259 512.135 301.643 510.941 303.062 511.384C306.521 512.467 310.379 512.172 313.615 510.474C318.024 508.135 321.108 503.25 321.425 498.069L321.659 497.946C321.741 498.131 321.835 498.315 321.917 498.488C326.197 507.139 335.015 513.513 344.302 513.255C344.924 513.23 345.534 513.181 346.143 513.107L346.167 513.267V578.438C346.167 580.234 347.269 581.846 348.911 582.363C353.296 583.754 361.54 588.011 363.205 600.588C363.533 603.074 361.704 605.289 359.324 605.289H354.575H350.986V605.289Z" fill="#FDC300"/>
<path d="M341.114 591.691C340.012 591.556 339.238 590.51 339.355 589.365C339.484 588.209 340.481 587.384 341.571 587.519C349.287 588.467 355.443 596.429 354.763 604.55C354.74 604.821 354.669 605.067 354.564 605.289H350.975C350.823 604.957 350.741 604.575 350.776 604.181C351.28 598.336 346.672 592.38 341.114 591.691Z" fill="#EB3729"/>
<path d="M276.596 607.394H296.812C299.99 607.394 302.605 604.773 302.769 601.426C303.238 591.397 299.814 584.825 293.118 582.943C292.602 582.795 292.333 582.414 292.227 582.192C292.016 581.786 291.969 581.294 292.11 580.851L305.349 537.067C305.689 535.96 305.102 534.778 304.047 534.434C302.992 534.089 301.866 534.692 301.538 535.8L288.299 579.583C287.83 581.109 287.982 582.807 288.721 584.222C289.448 585.613 290.644 586.61 292.098 587.016C295.405 587.951 299.251 591.163 298.782 601.229C298.723 602.336 297.867 603.21 296.824 603.21H276.608C274.697 603.21 272.914 602.423 271.589 600.983C270.264 599.543 269.56 597.648 269.631 595.654L271.976 519.421C272.011 518.264 271.144 517.292 270.041 517.255C268.939 517.218 268.013 518.129 267.978 519.285L265.632 595.519C265.539 598.669 266.629 601.647 268.716 603.912C270.792 606.139 273.594 607.394 276.596 607.394Z" fill="#EB3729"/>
<path d="M295.922 567.487C302.958 567.487 310.603 565.001 317.1 560.558C323.479 556.202 328.169 550.332 330.303 544.032C330.678 542.937 330.127 541.743 329.084 541.349C328.04 540.956 326.902 541.534 326.527 542.629C324.686 548.068 320.559 553.2 314.918 557.051C308.692 561.309 301.351 563.573 294.773 563.278C293.682 563.229 292.733 564.127 292.686 565.284C292.639 566.441 293.495 567.425 294.597 567.474C295.031 567.474 295.477 567.487 295.922 567.487Z" fill="#EB3729"/>
<path d="M344.056 515.359C344.244 515.359 344.443 515.359 344.631 515.347C345.311 515.322 345.991 515.273 346.659 515.187C352.945 514.35 358.831 510.572 362.396 505.084C364.249 502.229 365.386 499.005 365.679 495.744C366.101 491.068 364.976 486.084 362.337 480.928C361.376 479.033 360.203 477.113 358.772 475.095C357.283 472.979 355.665 470.948 354.106 468.967C351.409 465.571 348.864 462.347 346.847 458.716C344.654 454.754 343.13 450.262 342.462 445.722C342.297 444.577 341.265 443.79 340.175 443.974C339.084 444.146 338.334 445.229 338.51 446.374C339.26 451.431 340.949 456.427 343.388 460.845C345.569 464.783 348.348 468.29 351.033 471.674C352.558 473.606 354.141 475.587 355.56 477.605C356.849 479.439 357.952 481.223 358.808 482.922C361.071 487.339 362.044 491.523 361.692 495.363C361.458 497.959 360.578 500.432 359.089 502.734C356.193 507.176 351.244 510.363 346.155 511.04C345.616 511.101 345.053 511.151 344.49 511.175C336.352 511.397 328.085 505.921 323.946 497.541L323.7 497.024C320.158 489.505 319.725 479.907 322.515 470.69C322.855 469.582 322.269 468.401 321.214 468.056C320.158 467.699 319.033 468.315 318.704 469.422C315.609 479.661 316.125 490.403 320.123 498.894L320.381 499.448C325.142 509.034 334.593 515.359 344.056 515.359Z" fill="#EB3729"/>
<path d="M289.495 606.47C290.515 606.47 291.395 605.646 291.489 604.55C292.169 596.429 286.013 588.479 278.308 587.519C277.206 587.384 276.221 588.209 276.092 589.353C275.963 590.51 276.749 591.543 277.839 591.679C283.386 592.368 287.994 598.311 287.513 604.169C287.42 605.326 288.229 606.347 289.331 606.445C289.378 606.458 289.437 606.47 289.495 606.47Z" fill="#EB3729"/>
<path d="M355.467 446.448C355.877 446.448 356.299 446.312 356.651 446.042C357.542 445.352 357.73 444.036 357.073 443.101C355.244 440.492 354.318 438.437 354.083 436.431C353.813 434.179 354.646 431.964 356.1 431.029C357.882 429.897 360.392 430.635 361.975 431.804C364.015 433.33 365.493 435.754 366.911 438.092C367.51 439.064 368.741 439.36 369.679 438.732C370.605 438.104 370.887 436.812 370.289 435.828C368.729 433.268 366.97 430.377 364.297 428.371C361.6 426.365 357.39 425.294 354.036 427.423C351.234 429.207 349.662 433.035 350.12 436.923C350.542 440.504 352.453 443.568 353.86 445.574C354.247 446.152 354.845 446.448 355.467 446.448Z" fill="#EB3729"/>
<path d="M394.785 424.259C394.773 424.198 394.773 424.124 394.762 424.062H394.773C394.785 424.136 394.785 424.198 394.785 424.259Z" fill="black"/>
<path d="M94.8102 1031.32C95.2602 1033.24 95.5402 1035.2 95.8102 1037.11C96.4302 1041.41 97.0102 1045.46 99.3302 1048.55C102.1 1052.24 107.38 1053.96 112.16 1052.74C116.75 1051.57 120.74 1047.85 122.58 1043.04C124.23 1038.71 124.18 1033.72 124.13 1028.89L124.12 1027.95C124.07 1022.34 124.25 1016.42 126.96 1011.22C127.14 1010.87 127.34 1010.52 127.56 1010.18C125.3 1008.73 122.83 1007.53 120.16 1006.65C107.6 1002.49 94.3202 1006.43 85.9502 1015.6C90.2602 1019.96 93.4302 1025.42 94.8102 1031.32Z" fill="#2C52FF"/>
<path d="M203.969 835C238.194 835 265.938 826.957 265.938 817.035C265.938 807.114 238.194 799.071 203.969 799.071C169.744 799.071 142 807.114 142 817.035C142 826.957 169.744 835 203.969 835Z" fill="#F3AA33" style="mix-blend-mode:multiply"/>
<path d="M254.373 795.625C254.365 795.608 254.357 795.582 254.349 795.565C254.251 795.359 254.144 795.161 254.021 794.955C253.948 794.834 253.866 794.714 253.784 794.594C253.53 794.233 253.235 793.872 252.883 793.528C252.883 793.528 252.883 793.528 252.875 793.519C252.219 792.866 251.409 792.238 250.426 791.645C250.033 791.405 249.615 791.173 249.173 790.941C245.847 789.221 241.072 787.76 234.856 786.583V733.748H235.208C237.067 733.748 238.812 733.249 240.335 732.372C240.704 732.166 241.056 731.943 241.4 731.685C241.621 731.522 241.834 731.35 242.039 731.178C242.8 730.516 243.472 729.742 244.045 728.891C244.152 728.737 244.25 728.573 244.34 728.419C244.569 728.04 244.774 727.645 244.963 727.232C244.963 727.224 244.971 727.224 244.971 727.215C245.085 726.957 245.192 726.7 245.282 726.433C246.036 726.347 246.773 726.192 247.485 725.978C249.369 725.41 251.081 724.396 252.498 723.055C252.539 723.012 252.588 722.978 252.637 722.935C254.193 721.431 255.381 719.523 256.077 717.382C256.192 717.03 256.29 716.677 256.38 716.316C256.634 715.259 256.781 714.159 256.781 713.025C256.781 707.223 253.26 702.272 248.353 700.372C247.379 699.994 246.355 699.728 245.29 699.616C245.192 699.349 245.094 699.083 244.979 698.825C244.66 698.095 244.258 697.407 243.8 696.771C243.75 696.694 243.693 696.625 243.636 696.556C243.333 696.161 243.013 695.782 242.661 695.43C242.653 695.421 242.653 695.421 242.645 695.413C242.448 695.215 242.252 695.035 242.047 694.854C241.842 694.674 241.629 694.502 241.408 694.347C239.655 693.049 237.517 692.284 235.216 692.284H234.864V685.382C235.888 685.159 236.78 684.574 237.427 683.766C238.083 682.941 238.476 681.884 238.476 680.732C238.476 677.2 237.419 673.933 235.642 671.226C235.257 670.641 234.847 670.083 234.405 669.558C234.348 669.49 234.29 669.412 234.233 669.343C232.734 667.633 230.891 666.275 228.836 665.329C227.279 664.616 225.609 664.143 223.848 663.989C223.25 657.551 219.9 651.955 215.059 648.491V642.913C215.059 640.859 214.56 638.925 213.683 637.24C211.758 633.527 208.007 631 203.699 631C199.391 631 195.64 633.527 193.707 637.24C192.83 638.925 192.331 640.859 192.331 642.913V648.491C190.259 649.97 188.465 651.843 187.04 654.001C186.483 654.843 185.991 655.729 185.549 656.648C184.484 658.9 183.78 661.367 183.534 663.98C182.003 664.118 180.528 664.487 179.144 665.046C173.157 667.478 168.906 673.581 168.906 680.715C168.906 683.001 170.454 684.927 172.51 685.365V692.267H172.158C169.856 692.267 167.718 693.032 165.974 694.33C165.753 694.493 165.54 694.665 165.335 694.837C163.893 696.083 162.763 697.725 162.092 699.599C160.478 699.779 158.955 700.269 157.57 701.017C155.498 702.134 153.754 703.836 152.525 705.899C151.297 707.962 150.584 710.403 150.584 713.016C150.584 715.38 151.182 717.597 152.198 719.54C153.058 721.164 154.212 722.591 155.605 723.717C156.219 724.207 156.866 724.645 157.562 725.024C158.946 725.771 160.47 726.261 162.083 726.442C162.755 728.307 163.877 729.949 165.327 731.195C165.532 731.375 165.745 731.547 165.966 731.702C167.718 733 169.848 733.756 172.149 733.756H172.502V786.591C168.464 787.365 165.032 788.25 162.214 789.247C161.739 789.411 161.289 789.582 160.855 789.754C160.527 789.883 160.216 790.012 159.913 790.141C155.007 792.256 152.533 794.817 152.533 797.791V812.867C152.533 817.216 157.906 820.706 168.513 823.233C177.932 825.476 190.422 826.714 203.691 826.714C207.835 826.714 211.906 826.594 215.829 826.362C217.402 826.267 218.942 826.155 220.465 826.026C221.227 825.958 221.972 825.889 222.717 825.82C228.672 825.227 234.151 824.359 238.861 823.241C241.285 822.666 243.431 822.03 245.307 821.351C245.675 821.222 246.036 821.084 246.38 820.947C251.024 819.116 253.784 816.95 254.586 814.466C254.75 813.95 254.84 813.417 254.84 812.876V797.8C254.84 797.284 254.767 796.785 254.619 796.304C254.545 796.055 254.464 795.84 254.373 795.625Z" fill="#C72802"/>
<path d="M250.744 803.695V812.858C250.744 816.098 234.134 822.407 203.69 822.407C173.238 822.407 156.628 816.098 156.628 812.858V803.695C159.298 805.397 163.27 806.884 168.512 808.139C177.931 810.382 190.422 811.62 203.69 811.62C216.959 811.62 229.441 810.382 238.86 808.139C244.11 806.893 248.074 805.397 250.744 803.695Z" fill="#EB3729"/>
<path d="M203.691 693.72C213.814 693.72 222.062 702.375 222.062 712.999C222.062 723.631 213.814 732.287 203.691 732.287C193.559 732.287 185.312 723.631 185.312 712.999C185.312 702.367 193.559 693.72 203.691 693.72ZM217.443 712.999C217.443 710.334 216.738 707.73 215.42 705.469C214.83 704.455 213.569 704.137 212.61 704.765C211.652 705.383 211.341 706.707 211.939 707.713C212.864 709.303 213.356 711.134 213.356 712.999C213.356 718.594 209.015 723.141 203.691 723.141C198.359 723.141 194.026 718.594 194.026 712.999C194.026 711.134 194.509 709.303 195.435 707.713C196.025 706.707 195.73 705.383 194.763 704.765C193.805 704.146 192.544 704.455 191.954 705.469C190.627 707.73 189.939 710.334 189.939 712.999C189.939 720.967 196.107 727.43 203.691 727.43C211.275 727.43 217.443 720.958 217.443 712.999Z" fill="#EB3729"/>
<path d="M230.768 788.378V790.742C230.22 791.679 226.542 793.372 219.547 794.498V761.561C219.547 760.375 218.63 759.412 217.5 759.412C216.378 759.412 215.452 760.375 215.452 761.561V795.057C212.659 795.358 209.473 795.564 205.886 795.624V754.41C205.886 753.224 204.968 752.261 203.838 752.261C202.708 752.261 201.791 753.224 201.791 754.41V795.633C198.211 795.581 195.017 795.384 192.216 795.091V761.57C192.216 760.384 191.299 759.421 190.168 759.421C189.038 759.421 188.121 760.384 188.121 761.57V794.55C180.929 793.433 177.154 791.705 176.597 790.751V788.387V731.598V694.406V685.45H230.76V694.406V731.59V788.378H230.768ZM226.157 712.998C226.157 700.002 216.075 689.421 203.691 689.421C191.299 689.421 181.224 700.002 181.224 712.998C181.224 726.003 191.307 736.575 203.691 736.575C216.075 736.575 226.157 726.003 226.157 712.998Z" fill="#EB3729"/>
<path d="M230.178 681.162H176.604C175.474 681.162 174.557 680.199 174.557 679.013C174.557 677.827 175.474 676.864 176.604 676.864H230.178C231.308 676.864 232.226 677.827 232.226 679.013C232.226 680.199 231.308 681.162 230.178 681.162Z" fill="#EB3729"/>
<path d="M217.442 663.963H189.333C188.202 663.963 187.285 663 187.285 661.814C187.285 660.628 188.202 659.665 189.333 659.665H217.442C218.573 659.665 219.49 660.628 219.49 661.814C219.49 663 218.573 663.963 217.442 663.963Z" fill="#EB3729"/>
<path d="M209.366 646.763H198.022C196.892 646.763 195.975 645.801 195.975 644.615C195.975 643.428 196.892 642.466 198.022 642.466H209.366C210.496 642.466 211.414 643.428 211.414 644.615C211.414 645.801 210.496 646.763 209.366 646.763Z" fill="#EB3729"/>
<path d="M245.29 718.956V707.051C245.29 705.865 246.207 704.902 247.338 704.902C248.468 704.902 249.385 705.865 249.385 707.051V718.956C249.385 720.142 248.468 721.104 247.338 721.104C246.207 721.104 245.29 720.142 245.29 718.956Z" fill="#EB3729"/>
<path d="M234.863 723.125V702.866C234.863 701.679 235.781 700.717 236.911 700.717C238.041 700.717 238.959 701.679 238.959 702.866V723.125C238.959 724.311 238.041 725.273 236.911 725.273C235.781 725.273 234.863 724.311 234.863 723.125Z" fill="#EB3729"/>
<path d="M162.131 718.956V707.051C162.131 705.865 161.214 704.902 160.084 704.902C158.953 704.902 158.036 705.865 158.036 707.051V718.956C158.036 720.142 158.953 721.104 160.084 721.104C161.214 721.104 162.131 720.142 162.131 718.956Z" fill="#EB3729"/>
<path d="M172.559 723.125V702.866C172.559 701.679 171.642 700.717 170.511 700.717C169.381 700.717 168.464 701.679 168.464 702.866V723.125C168.464 724.311 169.381 725.273 170.511 725.273C171.642 725.273 172.559 724.311 172.559 723.125Z" fill="#EB3729"/>
<path d="M1352.39 403.017C1352.39 404.692 1352.26 406.331 1352.01 407.933C1351.1 414.875 1347.79 423.238 1345.07 429.233C1343.27 430.384 1341.51 431.613 1339.75 432.8C1331.76 438.181 1323.28 443.044 1314.47 447.021C1310.41 442.417 1305.81 438.35 1300.77 434.946C1303.64 431.192 1306.85 427.739 1310.35 424.636C1310.57 424.678 1310.73 424.708 1310.79 424.72L1310.86 424.732C1310.88 424.732 1310.9 424.732 1310.93 424.732C1311.93 424.877 1312.96 424.955 1314 424.955C1314 424.955 1314 424.955 1314.01 424.955C1314.01 424.955 1314.01 424.955 1314.02 424.955C1314.3 424.955 1314.57 424.943 1314.85 424.931C1314.91 424.931 1314.97 424.931 1315.01 424.931C1315.02 424.931 1315.04 424.931 1315.05 424.931C1327.2 424.359 1336.89 413.808 1336.89 400.872C1336.89 388.055 1327.38 377.577 1315.39 376.83C1315.35 376.83 1315.31 376.824 1315.27 376.818C1315.03 376.806 1314.79 376.8 1314.54 376.794C1314.38 376.788 1314.22 376.782 1314.06 376.782C1314.04 376.782 1314.03 376.782 1314.01 376.782H1314H1314C1313.95 376.782 1313.91 376.788 1313.86 376.788C1313.55 376.788 1313.24 376.794 1312.92 376.806C1312.8 376.812 1312.67 376.83 1312.54 376.836C1312.34 376.848 1312.15 376.866 1311.96 376.884C1311.59 376.92 1311.22 376.963 1310.85 377.017C1310.7 377.041 1310.55 377.059 1310.41 377.083C1309.97 377.155 1309.55 377.24 1309.12 377.336C1309.04 377.354 1308.96 377.372 1308.88 377.39C1308.25 377.541 1307.63 377.71 1307.02 377.909C1311.67 374.576 1317.41 372.546 1323.46 372.546C1339.44 372.552 1352.39 386.194 1352.39 403.017Z" fill="#0C0C0C"/>
<path d="M1298.01 438.82C1298.19 438.555 1298.36 438.295 1298.54 438.03C1298.78 437.681 1299.02 437.331 1299.27 436.988C1299.58 436.554 1299.9 436.126 1300.21 435.698C1300.4 435.445 1300.59 435.192 1300.78 434.945C1305.82 438.35 1310.42 442.417 1314.48 447.02C1306.46 450.642 1298.15 453.516 1289.7 455.36C1291.81 449.461 1294.62 443.905 1298.01 438.82Z" fill="#3258F6"/>
<path d="M1413.96 523.352C1419.9 524.002 1424.67 529.118 1424.98 535.595C1425.04 536.806 1424.94 537.993 1424.69 539.12L1412.8 539.741C1413.72 534.294 1414.09 528.805 1413.96 523.352Z" fill="#DE4937"/>
<path d="M1342.02 571.567H1343.21H1353.31V582.16H1331.96C1331.96 576.315 1336.47 571.567 1342.02 571.567Z" fill="#DE6432"/>
<path d="M1372.57 571.567H1373.75H1383.86V582.16H1362.51C1362.51 576.315 1367.01 571.567 1372.57 571.567Z" fill="#DE6432"/>
<path d="M1307.15 377.921C1307.76 377.716 1308.39 377.547 1309.03 377.397C1309.11 377.379 1309.19 377.361 1309.27 377.342C1309.7 377.246 1310.12 377.162 1310.55 377.089C1310.7 377.065 1310.85 377.041 1311 377.023C1311.37 376.969 1311.74 376.927 1312.11 376.891C1312.3 376.872 1312.49 376.854 1312.69 376.842C1312.81 376.836 1312.94 376.818 1313.07 376.812C1313.39 376.794 1313.7 376.794 1314.01 376.794C1314.06 376.794 1314.1 376.788 1314.15 376.788C1314.16 376.788 1314.18 376.788 1314.2 376.788C1314.36 376.788 1314.52 376.794 1314.68 376.8C1314.92 376.806 1315.17 376.812 1315.41 376.824C1315.45 376.824 1315.49 376.83 1315.53 376.836C1327.52 377.583 1337.03 388.062 1337.03 400.878C1337.03 413.815 1327.34 424.365 1315.19 424.938C1315.18 424.938 1315.16 424.938 1315.15 424.944C1315.11 424.944 1315.05 424.944 1314.98 424.944C1314.71 424.956 1314.43 424.968 1314.15 424.968C1313.11 424.968 1312.09 424.889 1311.08 424.745C1311.06 424.745 1311.03 424.745 1311.02 424.745L1310.95 424.733C1310.88 424.721 1310.71 424.691 1310.49 424.648C1307.74 424.094 1294.45 421.117 1293.04 420.804C1295.13 418.388 1296.26 415.164 1296.12 411.832C1296.13 411.814 1296.14 411.796 1296.14 411.784C1296.08 410.609 1295.88 409.422 1295.56 408.253C1295.55 408.211 1295.53 408.169 1295.52 408.12C1295.48 407.97 1295.44 407.825 1295.4 407.675C1295.35 407.512 1295.28 407.355 1295.22 407.193C1295.15 406.994 1295.08 406.795 1295 406.602C1294.89 406.337 1294.78 406.078 1294.66 405.819C1294.58 405.65 1294.5 405.487 1294.42 405.325C1294.28 405.048 1294.13 404.782 1293.98 404.517C1293.91 404.391 1293.83 404.27 1293.75 404.144C1293.58 403.86 1293.4 403.583 1293.21 403.318C1293.14 403.228 1293.07 403.137 1293 403.047C1292.79 402.764 1292.57 402.487 1292.34 402.222C1292.28 402.149 1292.22 402.089 1292.15 402.017C1291.91 401.746 1291.66 401.48 1291.4 401.227C1291.33 401.161 1291.25 401.101 1291.18 401.035C1290.92 400.794 1290.66 400.559 1290.38 400.342C1289.66 399.769 1288.89 399.263 1288.08 398.835C1288.06 398.829 1288.05 398.823 1288.03 398.811C1287.64 398.606 1287.23 398.419 1286.81 398.251C1286.76 398.227 1286.7 398.215 1286.65 398.191C1286.28 398.046 1285.9 397.913 1285.52 397.799C1285.4 397.763 1285.29 397.745 1285.18 397.715C1284.85 397.63 1284.53 397.546 1284.19 397.48C1284.02 397.443 1283.84 397.425 1283.67 397.401C1283.66 397.401 1283.64 397.401 1283.63 397.395L1307.15 377.921ZM1309.85 402.686C1310.5 402.933 1311.19 403.077 1311.92 403.077C1315.26 403.077 1317.97 400.221 1317.97 396.696C1317.97 393.171 1315.26 390.315 1311.92 390.315C1310.63 390.315 1309.44 390.737 1308.47 391.454C1306.89 392.605 1305.86 394.521 1305.86 396.696C1305.86 399.45 1307.52 401.794 1309.85 402.686Z" fill="#F1A833"/>
<path d="M1308.46 391.447C1309.44 390.73 1310.63 390.309 1311.92 390.309C1315.26 390.309 1317.97 393.165 1317.97 396.69C1317.97 400.214 1315.26 403.07 1311.92 403.07C1311.19 403.07 1310.5 402.926 1309.85 402.679C1307.52 401.787 1305.86 399.443 1305.86 396.684C1305.86 394.514 1306.89 392.598 1308.46 391.447ZM1309.55 400.257C1309.83 400.347 1310.14 400.413 1310.45 400.413C1312.2 400.413 1313.63 398.919 1313.63 397.069C1313.63 395.225 1312.21 393.725 1310.45 393.725C1309.84 393.725 1309.28 393.912 1308.8 394.225C1307.89 394.81 1307.28 395.858 1307.28 397.069C1307.28 398.582 1308.24 399.847 1309.55 400.257Z" fill="white"/>
<path d="M1308.8 394.232C1309.28 393.918 1309.84 393.731 1310.45 393.731C1312.2 393.731 1313.63 395.226 1313.63 397.076C1313.63 398.919 1312.21 400.42 1310.45 400.42C1310.14 400.42 1309.83 400.353 1309.55 400.263C1308.24 399.853 1307.28 398.588 1307.28 397.076C1307.28 395.864 1307.89 394.816 1308.8 394.232Z" fill="black"/>
<path d="M1276.14 421.129C1277.24 420.262 1278.6 419.961 1279.89 419.527C1281.36 419.033 1282.81 418.478 1284.27 417.948C1286.34 417.195 1288.43 416.436 1290.44 415.496C1291.97 414.785 1293.45 413.971 1294.82 412.965C1295.19 412.7 1295.55 412.417 1295.87 412.085C1295.91 412.049 1296.07 411.917 1296.12 411.826C1296.26 415.158 1295.13 418.382 1293.04 420.798C1291.73 422.316 1290.05 423.516 1288.07 424.215C1283.69 425.769 1279.06 424.468 1275.98 421.28C1276.03 421.232 1276.08 421.172 1276.14 421.129Z" fill="#9A3226"/>
<path d="M1267.07 411.796C1267.07 411.64 1267.08 411.489 1267.09 411.332C1267.12 410.935 1267.17 410.549 1267.23 410.157C1267.23 410.115 1267.24 410.079 1267.25 410.037C1267.71 407.078 1268.98 404.409 1270.81 402.282C1270.91 402.162 1271.02 402.035 1271.13 401.915C1271.32 401.71 1271.51 401.517 1271.71 401.324C1271.82 401.222 1271.93 401.113 1272.04 401.011C1272.25 400.818 1272.47 400.625 1272.69 400.444C1272.79 400.366 1272.89 400.288 1272.99 400.209C1273.24 400.023 1273.48 399.836 1273.73 399.661C1273.8 399.619 1273.87 399.577 1273.93 399.534C1274.82 398.95 1275.77 398.468 1276.77 398.1C1276.83 398.076 1276.89 398.052 1276.95 398.028C1276.96 398.022 1276.97 398.022 1276.98 398.016C1277.38 397.877 1277.8 397.757 1278.21 397.649C1278.29 397.63 1278.36 397.606 1278.43 397.588C1278.77 397.51 1279.12 397.45 1279.46 397.395C1279.62 397.371 1279.77 397.341 1279.92 397.323C1280.18 397.293 1280.45 397.281 1280.71 397.263C1280.95 397.245 1281.19 397.227 1281.42 397.227C1281.48 397.227 1281.53 397.221 1281.59 397.221C1281.78 397.221 1281.98 397.239 1282.17 397.251C1282.39 397.257 1282.61 397.263 1282.83 397.281C1283.09 397.305 1283.36 397.347 1283.62 397.383C1283.63 397.383 1283.64 397.383 1283.66 397.389C1283.83 397.414 1284.01 397.438 1284.18 397.468C1284.51 397.528 1284.84 397.612 1285.17 397.703C1285.28 397.733 1285.39 397.757 1285.5 397.787C1285.89 397.902 1286.26 398.034 1286.64 398.179C1286.69 398.203 1286.75 398.215 1286.8 398.239C1287.22 398.408 1287.63 398.595 1288.02 398.799C1288.04 398.805 1288.05 398.811 1288.07 398.823C1288.89 399.251 1289.66 399.757 1290.37 400.33C1290.65 400.547 1290.91 400.788 1291.17 401.023C1291.24 401.089 1291.32 401.149 1291.39 401.216C1291.65 401.469 1291.89 401.734 1292.14 402.005C1292.2 402.071 1292.27 402.137 1292.33 402.21C1292.56 402.475 1292.78 402.752 1292.99 403.035C1293.06 403.126 1293.12 403.21 1293.19 403.306C1293.39 403.572 1293.57 403.849 1293.74 404.132C1293.82 404.258 1293.9 404.379 1293.97 404.505C1294.13 404.771 1294.27 405.036 1294.41 405.313C1294.49 405.476 1294.57 405.638 1294.65 405.807C1294.77 406.066 1294.88 406.325 1294.98 406.59C1295.06 406.783 1295.13 406.982 1295.21 407.181C1295.26 407.343 1295.33 407.494 1295.39 407.663C1295.43 407.813 1295.47 407.958 1295.51 408.109C1295.52 408.151 1295.53 408.193 1295.55 408.241C1295.87 409.416 1296.07 410.597 1296.13 411.772C1296.13 411.784 1296.12 411.802 1296.11 411.82C1296.05 411.911 1295.9 412.043 1295.86 412.079C1295.54 412.405 1295.18 412.688 1294.81 412.959C1293.43 413.965 1291.96 414.779 1290.43 415.49C1288.42 416.43 1286.33 417.189 1284.26 417.942C1282.8 418.472 1281.35 419.027 1279.87 419.521C1278.59 419.955 1277.23 420.256 1276.13 421.124C1276.07 421.172 1276.02 421.226 1275.96 421.274C1275.66 421.539 1275.39 421.841 1275.14 422.16C1274.76 422.63 1274.47 423.251 1273.97 423.606C1273.26 424.106 1272.5 423.691 1271.85 423.311C1270.87 422.745 1270.04 421.877 1269.35 420.84L1269.33 420.847C1269.29 420.78 1269.26 420.708 1269.22 420.642C1268.34 419.25 1267.73 417.581 1267.37 415.918C1267.37 415.882 1267.36 415.851 1267.35 415.815C1267.28 415.484 1267.22 415.146 1267.17 414.815C1267.17 414.803 1267.17 414.791 1267.17 414.785C1267.13 414.544 1267.1 414.303 1267.08 414.068C1267.07 414.014 1267.07 413.953 1267.07 413.899C1267.05 413.568 1267.03 413.23 1267.02 412.893C1267.02 412.827 1267.02 412.766 1267.02 412.7C1267.02 412.646 1267.01 412.598 1267.01 412.543C1267.03 412.302 1267.06 412.049 1267.07 411.796Z" fill="#D44736"/>
<path d="M1343.73 537.282C1355.81 536.234 1367.61 532.926 1379.56 530.853C1390.91 528.889 1402.74 528.075 1413.79 531.299C1413.6 534.119 1413.27 536.933 1412.8 539.74C1412.8 539.74 1412.8 539.74 1412.8 539.746C1404.47 547.152 1394.64 552.743 1383.86 555.955V571.567H1373.75V565.831L1367.18 558.907C1365.66 558.998 1364.13 559.064 1362.59 559.064C1359.45 559.064 1356.36 558.859 1353.31 558.48V571.567H1343.21V565.831L1329.34 551.231C1325.34 549.237 1321.53 546.875 1317.94 544.223C1317.92 544.254 1317.9 544.284 1317.88 544.308C1312.97 541 1308.49 537.065 1304.51 532.624C1317.13 536.824 1330.53 538.427 1343.73 537.282Z" fill="#3258F6"/>
<path d="M1380.7 527.732H1382.12V571.574H1380.7V527.732Z" fill="white"/>
<path d="M1378.23 527.732H1379.64V571.574H1378.23V527.732Z" fill="white"/>
<path d="M1375.75 527.732H1377.16V571.574H1375.75V527.732Z" fill="white"/>
<path d="M1281.14 475.418C1280.62 475.231 1280.06 475.219 1279.51 475.328C1279.47 475.659 1279.43 475.984 1279.35 476.31C1279.14 477.298 1278.71 478.286 1278.04 478.985C1277.53 479.515 1277.47 480.359 1277.95 480.925C1278.45 481.534 1279.35 481.576 1279.88 480.998C1280.86 479.967 1281.42 478.467 1281.72 477.015C1281.8 476.635 1281.86 476.25 1281.92 475.87C1281.69 475.671 1281.42 475.514 1281.14 475.418Z" fill="#F1A833"/>
<path d="M1288.74 465.416C1289.5 465.193 1289.91 464.308 1289.58 463.536C1289.33 462.94 1288.72 462.602 1288.11 462.741C1286.21 463.181 1284.43 464.169 1283.02 465.579C1281.35 467.254 1280.22 469.508 1279.85 471.906C1279.67 473.038 1279.66 474.189 1279.52 475.322C1280.06 475.214 1280.62 475.232 1281.15 475.412C1281.43 475.509 1281.69 475.666 1281.93 475.858C1282.16 474.262 1282.29 472.641 1282.81 471.122C1283.75 468.369 1286.06 466.2 1288.74 465.416Z" fill="#B0B0B0"/>
<path d="M1343.73 523.924C1355.81 522.875 1367.61 519.568 1379.56 517.495C1390.87 515.536 1402.65 514.723 1413.66 517.904C1413.81 519.712 1413.92 521.532 1413.96 523.351C1414.03 525.997 1413.97 528.648 1413.79 531.305C1402.74 528.081 1390.91 528.895 1379.56 530.859C1367.6 532.932 1355.81 536.234 1343.73 537.288C1330.53 538.439 1317.13 536.836 1304.51 532.631C1299.67 527.226 1295.6 521.062 1292.46 514.319C1308.31 522.116 1326.37 525.436 1343.73 523.924Z" fill="#B0B0B0"/>
<path d="M1343.73 523.924C1355.81 522.875 1367.61 519.568 1379.56 517.495C1390.87 515.536 1402.65 514.723 1413.66 517.904C1413.81 519.712 1413.92 521.532 1413.96 523.351C1414.03 525.997 1413.97 528.648 1413.79 531.305C1402.74 528.081 1390.91 528.895 1379.56 530.859C1367.6 532.932 1355.81 536.234 1343.73 537.288C1330.53 538.439 1317.13 536.836 1304.51 532.631C1299.67 527.226 1295.6 521.062 1292.46 514.319C1308.31 522.116 1326.37 525.436 1343.73 523.924Z" fill="#B0B0B0"/>
<path d="M1379.55 517.494C1367.59 519.567 1355.8 522.869 1343.72 523.923C1326.36 525.436 1308.3 522.116 1292.46 514.319C1287.87 504.443 1285.28 493.344 1285.28 481.601C1285.28 474.051 1286.36 466.766 1288.35 459.903C1288.43 459.945 1288.5 459.993 1288.58 460.03H1288.7C1298.71 459.367 1307.99 454.233 1317.53 450.57C1319.83 449.684 1322.15 448.888 1324.49 448.262C1337.52 444.773 1351.68 446.153 1363.89 452.106C1367.02 453.631 1370.76 455.438 1373.69 453.522C1373.77 453.474 1373.83 453.402 1373.9 453.347C1374.25 453.552 1374.6 453.751 1374.95 453.962C1397.83 467.826 1411.44 492.139 1413.65 517.904C1402.64 514.723 1390.86 515.536 1379.55 517.494Z" fill="#C9C9C9"/>
<path d="M1413.79 531.304C1411.11 530.521 1408.4 529.984 1405.64 529.635V516.276" fill="#B0B0B0"/>
<path d="M1405.64 516.277V529.635C1405.42 529.605 1405.2 529.581 1404.98 529.557V516.192C1405.2 516.223 1405.42 516.247 1405.64 516.277Z" fill="#808080"/>
<path d="M1396.96 515.777V529.136C1396.74 529.136 1396.52 529.142 1396.29 529.148V515.789C1396.52 515.783 1396.74 515.777 1396.96 515.777Z" fill="#808080"/>
<path d="M1388.28 516.271V529.629C1388.06 529.653 1387.84 529.677 1387.61 529.701V516.343C1387.84 516.325 1388.06 516.295 1388.28 516.271Z" fill="#808080"/>
<path d="M1379.57 517.501C1379.58 517.501 1379.59 517.495 1379.6 517.495V530.854C1379.59 530.854 1379.58 530.86 1379.57 530.86C1379.36 530.896 1379.15 530.938 1378.94 530.974V517.616C1379.15 517.573 1379.36 517.537 1379.57 517.501Z" fill="#808080"/>
<path d="M1370.92 519.17V532.528C1370.7 532.577 1370.48 532.619 1370.25 532.667V519.309C1370.48 519.26 1370.7 519.212 1370.92 519.17Z" fill="#808080"/>
<path d="M1362.24 520.983V534.342C1362.02 534.39 1361.8 534.432 1361.57 534.48V521.122C1361.8 521.074 1362.02 521.026 1362.24 520.983Z" fill="#808080"/>
<path d="M1344.88 523.815V537.174C1344.66 537.198 1344.44 537.222 1344.22 537.24V523.882C1344.43 523.858 1344.66 523.834 1344.88 523.815Z" fill="#808080"/>
<path d="M1353.56 522.628V535.986C1353.34 536.022 1353.12 536.065 1352.9 536.101V522.742C1353.11 522.706 1353.34 522.67 1353.56 522.628Z" fill="#808080"/>
<path d="M1336.21 524.268V537.644C1335.98 537.644 1335.76 537.644 1335.54 537.644V524.268C1335.75 524.268 1335.98 524.268 1336.21 524.268Z" fill="#808080"/>
<path d="M1327.52 523.954V537.318C1327.3 537.3 1327.07 537.282 1326.85 537.264V523.888C1327.07 523.912 1327.3 523.93 1327.52 523.954Z" fill="#808080"/>
<path d="M1318.84 522.839V536.227C1318.62 536.191 1318.39 536.143 1318.17 536.107V522.73C1318.39 522.761 1318.62 522.797 1318.84 522.839Z" fill="#808080"/>
<path d="M1310.16 520.936V534.318C1309.94 534.258 1309.71 534.204 1309.49 534.143V520.755C1309.71 520.815 1309.94 520.875 1310.16 520.936Z" fill="#808080"/>
<path d="M1301.48 518.188V529.003C1301.26 528.714 1301.03 528.431 1300.81 528.142V517.929C1301.03 518.013 1301.26 518.103 1301.48 518.188Z" fill="#808080"/>
<path d="M1288.63 460.024H1288.5C1287.63 459.638 1287.05 458.62 1287.15 457.626C1287.25 456.638 1288 455.758 1288.93 455.565C1306.99 451.793 1324.37 443.255 1339.88 432.801C1343.19 430.572 1346.45 428.204 1350.02 426.492C1353.6 424.781 1357.58 423.733 1361.47 424.317C1366.1 425.01 1370.28 428.017 1372.93 432.066C1375.58 436.115 1376.75 441.128 1376.63 446.045C1376.57 448.871 1375.89 452.022 1373.61 453.517C1370.68 455.433 1366.94 453.625 1363.81 452.101C1351.6 446.147 1337.44 444.768 1324.41 448.256C1312.35 451.492 1301.06 459.205 1288.63 460.024Z" fill="#B0B0B0"/>
<path d="M1289 467.016C1288.32 465.13 1289.83 462.766 1292.38 461.737C1294.93 460.707 1297.56 461.402 1298.25 463.288C1298.93 465.175 1297.42 467.539 1294.87 468.568C1292.31 469.597 1289.69 468.902 1289 467.016Z" fill="#F1A833"/>
<path d="M1291.37 466.062C1291.03 465.142 1291.77 463.989 1293.02 463.487C1294.26 462.985 1295.54 463.324 1295.88 464.244C1296.21 465.163 1295.47 466.316 1294.23 466.818C1292.98 467.321 1291.7 466.982 1291.37 466.062Z" fill="#808080"/>
<path d="M1292.56 479.126C1293.08 479.33 1293.52 479.692 1293.88 480.138C1293.71 480.421 1293.55 480.704 1293.42 481.006C1292.99 481.915 1292.74 482.97 1292.83 483.958C1292.91 484.705 1292.45 485.398 1291.75 485.525C1290.99 485.663 1290.27 485.097 1290.2 484.295C1290.06 482.849 1290.51 481.307 1291.16 479.981C1291.32 479.638 1291.51 479.294 1291.69 478.963C1291.99 478.963 1292.28 479.017 1292.56 479.126Z" fill="#F1A833"/>
<path d="M1292.65 466.327C1292.19 465.641 1292.4 464.688 1293.11 464.303C1293.66 464.008 1294.34 464.152 1294.73 464.664C1295.95 466.267 1296.74 468.219 1296.99 470.25C1297.29 472.654 1296.81 475.161 1295.67 477.264C1295.13 478.258 1294.45 479.162 1293.88 480.138C1293.52 479.692 1293.08 479.33 1292.56 479.125C1292.28 479.017 1291.99 478.963 1291.69 478.957C1292.46 477.559 1293.33 476.215 1293.83 474.691C1294.75 471.925 1294.26 468.707 1292.65 466.327Z" fill="#B0B0B0"/>
<path d="M1233.14 518.374C1233.6 516.482 1235.25 514.988 1237.09 514.777L1237.3 514.632C1237.57 515.03 1237.92 515.385 1238.32 515.669C1238.74 515.964 1239.22 516.151 1239.72 516.223V516.253C1239.7 516.476 1239.7 516.699 1239.72 516.916C1239.76 517.579 1239.93 518.229 1240.2 518.826C1239.86 519.579 1239.52 520.35 1239.06 521.031C1239.51 520.35 1239.86 519.585 1240.2 518.826C1239.93 518.223 1239.76 517.579 1239.72 516.916C1239.71 516.693 1239.71 516.476 1239.72 516.253V516.223C1240.5 516.331 1241.31 516.169 1241.97 515.729C1242.66 515.271 1243.05 514.457 1243.19 513.59C1243.33 512.704 1242.78 511.842 1241.95 511.637C1241.34 511.487 1240.71 511.421 1240.08 511.439C1241.14 507.251 1245.72 504.853 1249.82 505.287C1253.93 505.72 1257.54 508.366 1260.52 511.384C1264 514.915 1266.9 519.079 1269.07 523.622C1270.25 526.117 1270.63 528.834 1270.3 531.419C1280.25 536.517 1292.42 538.746 1303.42 537.487C1305.07 534.36 1306.93 531.287 1309.28 528.714C1311.63 526.141 1314.69 524.134 1318.06 523.773C1319.12 523.658 1320.19 523.725 1321.22 523.941C1321.88 524.755 1322.53 525.568 1323.18 526.382C1323.83 527.195 1324.5 528.039 1324.81 529.057C1325.12 530.075 1324.98 531.317 1324.21 532.01C1323.75 532.419 1323.15 532.582 1322.62 532.877C1322.59 532.895 1322.56 532.913 1322.53 532.931C1321.63 532.419 1320.54 532.233 1319.6 532.498C1317.52 533.088 1315.7 534.492 1314.38 536.318C1313.02 538.18 1313.4 540.819 1315.1 542.331C1315.91 543.048 1316.59 543.988 1317.11 544.916C1318.13 546.778 1318.52 548.941 1318.83 551.074C1319.13 553.201 1319.37 555.37 1320.11 557.371C1320.98 559.691 1322.51 561.685 1323.42 563.993C1324.57 566.915 1324.66 570.205 1324.19 573.332C1323.83 575.736 1323.14 578.062 1322.39 580.364C1321.99 581.605 1320.88 582.443 1319.63 582.443H1313.13C1311.2 582.443 1309.79 580.496 1310.32 578.538C1310.74 577.002 1311.6 575.507 1313.32 575.098C1314.07 574.923 1314.67 574.357 1314.86 573.579C1315.45 571.187 1314.59 568.259 1312.79 566.716C1311.72 565.8 1310.39 565.318 1309.09 564.806C1308.54 564.589 1307.98 564.366 1307.46 564.101C1306.96 563.848 1306.48 563.559 1306.03 563.228L1305.99 563.288C1303.89 564.716 1301.71 566.023 1299.44 567.108C1296.78 568.373 1294.01 569.337 1291.14 569.862C1285.81 570.832 1278.98 568.548 1274.29 565.698C1271.91 571.663 1269.05 577.303 1267.53 580.195C1266.87 581.442 1265.63 582.208 1264.28 582.208H1255.92C1254.25 582.208 1253.01 580.623 1253.28 578.912C1253.28 578.864 1253.3 578.815 1253.3 578.773C1253.82 576.206 1254.93 574.79 1256.09 574.013C1256.87 573.489 1257.67 573.266 1258.33 573.17C1259.28 573.037 1260.1 572.41 1260.48 571.476L1265.08 560.046L1264.92 559.98C1263.97 559.672 1263.06 559.257 1262.19 558.751C1260.15 557.558 1258.35 555.87 1256.83 553.99C1256.07 553.057 1255.37 552.068 1254.71 551.05C1253.5 549.158 1252.41 547.158 1251.34 545.163C1249.95 542.578 1248.56 539.993 1247.17 537.414C1245.9 535.046 1244.63 532.678 1243.35 530.31V530.172C1242.87 530.19 1242.38 530.148 1241.9 530.039C1240.13 529.642 1238.6 528.37 1237.69 526.737C1237.22 525.9 1236.91 524.972 1236.81 524.008C1238.74 523.49 1240.39 521.959 1241.08 519.977C1241.18 519.694 1241.04 519.386 1240.77 519.278C1240.51 519.175 1240.2 519.32 1240.11 519.603C1239.56 521.206 1238.18 522.495 1236.62 522.941C1236.34 523.014 1236.04 523.05 1235.75 523.026C1234.78 522.941 1233.89 522.272 1233.43 521.369C1232.97 520.459 1232.89 519.362 1233.14 518.374Z" fill="#FC9500"/>
<path d="M1240.12 519.592C1240.22 519.308 1240.51 519.164 1240.78 519.266C1241.05 519.369 1241.18 519.682 1241.09 519.965C1240.4 521.948 1238.75 523.484 1236.81 523.996C1236.77 523.647 1236.76 523.297 1236.78 522.942L1236.77 522.894C1236.73 522.906 1236.67 522.912 1236.63 522.924C1238.19 522.478 1239.56 521.194 1240.12 519.592Z" fill="#E8591B"/>
<path d="M1235.75 533.075C1235.43 535.245 1235.6 537.552 1236.61 539.474C1237.62 541.391 1239.58 542.831 1241.66 542.776C1244.35 542.704 1246.54 540.167 1247.19 537.402C1245.91 535.034 1244.64 532.666 1243.36 530.298V530.159C1242.88 530.177 1242.39 530.135 1241.91 530.027C1240.14 529.629 1238.61 528.358 1237.7 526.725L1237.58 526.797C1236.82 528.84 1236.06 530.906 1235.75 533.075Z" fill="#E8591B"/>
<path d="M1240.08 511.432C1239.4 511.45 1238.73 511.558 1238.08 511.763C1237.1 512.076 1236.58 513.251 1237.05 514.215C1237.12 514.36 1237.2 514.499 1237.29 514.631C1237.56 515.029 1237.92 515.384 1238.32 515.668C1238.73 515.963 1239.22 516.15 1239.71 516.222C1240.49 516.33 1241.3 516.168 1241.97 515.728C1242.65 515.27 1243.04 514.456 1243.18 513.589C1243.32 512.703 1242.77 511.841 1241.94 511.636C1241.34 511.48 1240.71 511.414 1240.08 511.432Z" fill="#E8591B"/>
<path d="M1253.31 578.761C1253.83 576.194 1254.94 574.778 1256.09 574.001L1262.14 558.859L1262.21 558.739C1260.16 557.546 1258.36 555.858 1256.84 553.978C1256.08 553.045 1255.38 552.056 1254.73 551.038L1249.85 569.596C1249.67 570.199 1249.45 570.826 1248.87 571.012C1247.29 571.519 1244.32 573.055 1243.72 577.598C1243.6 578.496 1244.26 579.297 1245.12 579.297H1251.63C1252.2 579.297 1252.75 579.153 1253.24 578.888L1253.28 578.9C1253.29 578.852 1253.3 578.803 1253.31 578.761Z" fill="#E8591B"/>
<path d="M1297.78 579.297H1304.28C1305.52 579.297 1306.63 578.465 1307.04 577.218C1307.79 574.916 1308.47 572.585 1308.83 570.186C1309.11 568.319 1309.24 566.86 1309.01 564.993L1309.09 564.788C1308.54 564.571 1307.98 564.348 1307.46 564.083C1306.96 563.83 1306.49 563.54 1306.03 563.209L1305.99 563.269C1303.89 564.697 1301.71 566.005 1299.44 567.089L1299.52 567.288C1299.82 568.433 1299.78 569.325 1299.51 570.427C1299.32 571.205 1298.72 571.771 1297.97 571.946C1296.25 572.356 1295.39 573.85 1294.97 575.386C1294.44 577.351 1295.85 579.297 1297.78 579.297Z" fill="#E8591B"/>
<path d="M1254.64 516.138C1254.9 516.138 1255.13 515.921 1255.15 515.638C1255.23 514.638 1255.32 513.505 1254.99 512.42C1254.66 511.354 1253.78 510.233 1252.53 510.131C1251.27 510.034 1250.24 510.986 1249.76 511.987C1249.27 512.999 1249.19 514.132 1249.12 515.132C1249.1 515.433 1249.31 515.692 1249.59 515.716C1249.89 515.741 1250.13 515.512 1250.15 515.216C1250.21 514.318 1250.29 513.3 1250.68 512.481C1251 511.824 1251.69 511.149 1252.45 511.215C1253.22 511.282 1253.79 512.059 1254.01 512.758C1254.27 513.638 1254.19 514.656 1254.12 515.554C1254.1 515.855 1254.31 516.114 1254.59 516.138C1254.61 516.138 1254.62 516.138 1254.64 516.138Z" fill="#E8591B"/>
<path d="M1244.62 522.441C1246.58 522.441 1248.57 521.326 1249.55 519.519C1249.69 519.26 1249.61 518.928 1249.35 518.778C1249.11 518.627 1248.79 518.717 1248.65 518.982C1247.65 520.832 1245.35 521.796 1243.42 521.176C1242.26 520.802 1241.22 519.838 1240.66 518.597C1240.33 517.856 1240.18 517.06 1240.23 516.295C1240.25 515.994 1240.03 515.735 1239.75 515.717C1239.47 515.692 1239.21 515.921 1239.2 516.223C1239.13 517.175 1239.32 518.163 1239.72 519.067C1240.41 520.585 1241.67 521.76 1243.11 522.218C1243.6 522.363 1244.11 522.441 1244.62 522.441Z" fill="#E8591B"/>
<path d="M1255.06 536.228C1254.86 537.499 1254.95 538.831 1255.41 539.951C1251.76 541.012 1249.08 541.126 1248.63 540.054L1246.92 536.908C1247.61 537.969 1250.85 537.631 1255.06 536.228Z" fill="#3258F6"/>
<path d="M1324.22 532.004C1324.99 531.311 1325.13 530.069 1324.82 529.051C1324.51 528.033 1323.84 527.189 1323.19 526.376C1322.53 525.562 1321.88 524.749 1321.23 523.936C1323.93 524.496 1326.44 526.105 1328.07 528.443C1330.32 531.678 1330.81 536.179 1329.32 539.867C1328.97 540.711 1328.02 541.144 1327.21 540.795C1326.43 540.457 1325.93 539.644 1325.6 538.825C1325.02 537.403 1324.78 535.836 1324.08 534.474C1323.74 533.823 1323.19 533.293 1322.53 532.926C1322.56 532.908 1322.59 532.889 1322.62 532.871C1323.15 532.576 1323.76 532.413 1324.22 532.004Z" fill="#E8591B"/>
<path d="M1265.47 535.951C1272.53 535.752 1279.63 531.799 1286.57 524.207C1288.62 521.953 1290.56 519.549 1292.43 517.223C1295.56 513.325 1298.53 509.637 1302.09 506.51C1310.24 499.328 1321.43 495.749 1332.01 496.936L1332.39 493.158C1320.86 491.856 1308.67 495.761 1299.77 503.594C1295.98 506.932 1292.78 510.915 1289.68 514.771C1287.84 517.055 1285.95 519.411 1283.97 521.574C1277.72 528.425 1271.46 531.986 1265.37 532.155L1265.47 535.951Z" fill="#3258F6"/>
<path d="M1347.2 531.805C1349.43 531.805 1351.73 530.678 1353.39 528.72C1354.82 527.02 1355.82 524.719 1356.36 521.863C1357.52 515.644 1356.26 508.854 1353.05 504.142C1351.61 502.033 1349.9 501.702 1348.72 501.798C1344.95 502.093 1341.51 507.209 1340.21 509.872C1338.1 514.198 1337.66 519.356 1338.99 524.014C1339.95 527.346 1342.34 531.124 1346.19 531.732C1346.52 531.775 1346.86 531.805 1347.2 531.805ZM1349.07 505.576C1349.28 505.576 1349.64 505.654 1350.11 506.353C1352.72 510.185 1353.78 515.982 1352.81 521.128C1352.41 523.303 1351.69 525.008 1350.69 526.195C1349.6 527.484 1348.05 528.177 1346.73 527.973C1344.54 527.629 1343.05 525.032 1342.45 522.917C1341.39 519.193 1341.74 515.072 1343.42 511.607C1344.76 508.866 1347.42 505.714 1348.99 505.588C1349.01 505.582 1349.04 505.576 1349.07 505.576Z" fill="#3258F6"/>
<path d="M1362.72 519.229C1363.09 519.229 1363.47 519.109 1363.79 518.856C1364.59 518.235 1364.76 517.042 1364.17 516.198C1360.58 511.077 1356.38 506.467 1351.68 502.484C1350.9 501.828 1349.76 501.954 1349.14 502.774C1348.52 503.593 1348.64 504.786 1349.42 505.443C1353.88 509.221 1357.87 513.595 1361.27 518.452C1361.62 518.964 1362.16 519.229 1362.72 519.229Z" fill="#3258F6"/>
<path d="M1326.62 465.47C1327.03 465.048 1327.44 464.633 1327.88 464.235C1329.67 462.62 1331.61 461.319 1333.64 460.318L1365.17 498.984C1363.93 500.948 1362.41 502.774 1360.63 504.389C1352.67 511.583 1341.67 512.613 1332.87 507.907C1330.02 506.383 1327.4 504.262 1325.19 501.551C1316.53 490.922 1317.28 475.147 1326.62 465.47Z" fill="#DE6432"/>
<path d="M1259.68 510.541C1260 510.842 1260.32 511.156 1260.63 511.469C1264.11 515 1267.01 519.163 1269.17 523.713C1272.3 530.311 1269.8 538.445 1263.48 541.638C1263.36 541.699 1263.23 541.759 1263.11 541.819C1261.04 542.771 1258.46 543.169 1256.68 541.717C1254.78 540.168 1254.62 537.119 1255.44 534.739C1256.27 532.359 1257.84 530.365 1258.96 528.123C1260.4 525.243 1260.79 521.851 1260.86 518.699C1260.85 518.693 1261.1 514.964 1259.68 510.541Z" fill="#E8591B"/>
<path d="M1256.95 854.996C1306.41 854.996 1346.5 849.006 1346.5 841.616C1346.5 834.227 1306.41 828.236 1256.95 828.236C1207.49 828.236 1167.4 834.227 1167.4 841.616C1167.4 849.006 1207.49 854.996 1256.95 854.996Z" fill="#F3AA33" style="mix-blend-mode:multiply"/>
<path d="M1319.41 815.422C1322.17 812.497 1323.79 808.49 1323.59 804.087C1323.22 796.471 1317.22 790.187 1309.63 789.48C1303.47 788.908 1297.85 796.113 1294.9 800.753C1293.41 803.092 1290.8 804.477 1288.02 804.418L1227.29 803.105C1224.51 803.045 1221.97 801.548 1220.58 799.145C1217.83 794.382 1212.52 786.942 1206.35 787.246C1198.74 787.622 1192.46 793.643 1191.78 801.238C1191.38 805.628 1192.83 809.701 1195.45 812.743C1196.87 814.385 1196.82 816.827 1195.33 818.405C1192.58 821.331 1190.95 825.337 1191.16 829.741C1191.52 837.355 1197.52 843.64 1205.12 844.347C1211.27 844.92 1216.89 837.714 1219.85 833.075C1221.34 830.735 1223.95 829.35 1226.72 829.409L1287.46 830.722C1290.23 830.782 1292.78 832.279 1294.17 834.682C1296.92 839.445 1302.22 846.885 1308.4 846.581C1316.01 846.206 1322.28 840.185 1322.97 832.59C1323.37 828.2 1321.92 824.127 1319.3 821.086C1317.87 819.445 1317.93 817.004 1319.41 815.422Z" fill="white"/>
<path d="M1301.21 830.616C1298.42 825.788 1293.22 822.713 1287.63 822.593L1264.4 822.088C1263.2 822.061 1262.19 823.019 1262.17 824.224C1262.14 825.429 1263.1 826.429 1264.31 826.453L1287.54 826.957C1291.61 827.046 1295.4 829.286 1297.42 832.801C1297.97 833.736 1298.52 834.635 1299.09 835.469C1299.5 836.08 1300.17 836.413 1300.85 836.428C1301.29 836.437 1301.73 836.317 1302.12 836.054C1303.12 835.377 1303.38 834.023 1302.7 833.024C1302.2 832.273 1301.69 831.465 1301.21 830.616Z" fill="#CCCCCC"/>
<path d="M1316.67 812.842C1318.85 810.52 1319.97 807.474 1319.82 804.266C1319.76 803.062 1318.73 802.134 1317.54 802.19C1316.33 802.249 1315.4 803.269 1315.46 804.473C1315.56 806.489 1314.86 808.399 1313.49 809.85C1309.14 814.474 1308.99 821.588 1313.13 826.394C1314.44 827.905 1315.05 829.844 1314.87 831.852C1314.76 833.053 1315.64 834.114 1316.85 834.222C1316.9 834.226 1316.95 834.229 1317 834.229C1318.13 834.253 1319.11 833.395 1319.22 832.245C1319.51 829.048 1318.52 825.958 1316.44 823.543C1313.76 820.439 1313.86 815.835 1316.67 812.842Z" fill="#CCCCCC"/>
<path d="M1285.22 810.308C1285.25 809.103 1284.29 808.103 1283.08 808.079L1227.2 806.868C1226 806.841 1225 807.799 1224.97 809.005C1224.95 810.209 1225.91 811.21 1227.11 811.233L1282.99 812.444C1284.2 812.471 1285.2 811.513 1285.22 810.308Z" fill="#CCCCCC"/>
<path d="M1206.8 791.005C1206.71 791.004 1206.62 791.003 1206.53 791.007C1200.78 791.292 1196.05 795.838 1195.52 801.573C1195.23 804.77 1196.22 807.861 1198.3 810.276C1199.95 812.185 1200.59 814.69 1200.08 817.145C1199.83 818.325 1200.59 819.483 1201.77 819.728C1201.9 819.756 1202.04 819.772 1202.17 819.775C1203.2 819.798 1204.13 819.084 1204.35 818.043C1205.15 814.245 1204.15 810.376 1201.61 807.429C1200.31 805.918 1199.69 803.98 1199.87 801.971C1200.2 798.396 1203.14 795.56 1206.73 795.367C1207.92 795.379 1208.91 794.43 1208.94 793.233C1208.96 792.033 1208 791.032 1206.8 791.005Z" fill="#CCCCCC"/>
</g>
<defs>
<linearGradient id="paint0_linear" x1="719.999" y1="832.045" x2="719.999" y2="-183.999" gradientUnits="userSpaceOnUse">
<stop offset="0.0687" stop-color="#7996F8"/>
<stop offset="0.3015" stop-color="#6B89F9"/>
<stop offset="0.7431" stop-color="#4569FD"/>
<stop offset="1" stop-color="#2C53FF"/>
</linearGradient>
<linearGradient id="paint1_linear" x1="1123.01" y1="548.852" x2="1123.01" y2="936.087" gradientUnits="userSpaceOnUse">
<stop stop-color="#FDC300"/>
<stop offset="0.338542" stop-color="#ED6914"/>
<stop offset="0.640625" stop-color="#E8591B"/>
</linearGradient>
<linearGradient id="paint2_linear" x1="646.834" y1="166.635" x2="777.126" y2="1702.03" gradientUnits="userSpaceOnUse">
<stop offset="0.119792" stop-color="#FDC300"/>
<stop offset="0.489583" stop-color="#E8591B"/>
<stop offset="1" stop-color="#E8591B"/>
</linearGradient>
</defs>
</svg>
